<?xml version="1.0" encoding="iso-8859-1"?>
<!-- Generator: Adobe Illustrator 19.0.0, SVG Export Plug-In . SVG Version: 6.00 Build 0)  -->
<svg xmlns="http://www.w3.org/2000/svg" xmlns:xlink="http://www.w3.org/1999/xlink" version="1.1" id="Layer_1" x="0px" y="0px" viewBox="0 0 512.001 512.001" style="enable-background:new 0 0 512.001 512.001;" xml:space="preserve" width="512px" height="512px">
<g>
	<g>
		<path d="M65.465,44.297V156.38h112.083V44.297H65.465z M162.031,140.864H80.979V59.812h81.052V140.864z" fill="#FFFFFF"/>
	</g>
</g>
<g>
	<g>
		<path d="M199.153,156.38h112.082V44.297H199.153V156.38z M214.669,59.812h81.051v81.052h-81.051V59.812z" fill="#FFFFFF"/>
	</g>
</g>
<g>
	<g>
		<path d="M332.842,44.297V156.38h112.082V44.297H332.842z M348.357,140.864V59.812h81.051v81.052H348.357z" fill="#FFFFFF"/>
	</g>
</g>
<g>
	<g>
		<path d="M65.465,177.093v112.083h112.083V177.093H65.465z M162.031,273.661H80.979v-81.052h81.052V273.661z" fill="#FFFFFF"/>
	</g>
</g>
<g>
	<g>
		<path d="M199.153,289.176h112.082V177.093H199.153V289.176z M214.669,192.609h81.051v81.052h-81.051V192.609z" fill="#FFFFFF"/>
	</g>
</g>
<g>
	<g>
		<path d="M332.842,177.093v112.083h112.082V177.093H332.842z M348.357,273.661v-81.052h81.051v81.052H348.357z" fill="#FFFFFF"/>
	</g>
</g>
<g>
	<g>
		<path d="M65.465,309.89v112.082h112.083V309.89H65.465z M162.031,406.457H80.979v-81.052h81.052V406.457z" fill="#FFFFFF"/>
	</g>
</g>
<g>
	<g>
		<path d="M488.329,354.24V52.821C488.329,23.696,464.634,0,435.508,0H74.88C45.755,0,22.059,23.696,22.059,52.821v360.628    c0,29.125,23.696,52.821,52.821,52.821h228.598h61.678v1.231c0,13.365,10.873,24.238,24.238,24.238    c13.365,0,24.239-10.873,24.239-24.238v-1.231h21.876h10.715v23.873c0,12.053,9.806,21.859,21.859,21.859    c12.052,0,21.859-9.806,21.859-21.859V365.931C489.942,361.88,489.378,357.959,488.329,354.24z M74.88,450.753v0.001    c-20.571,0-37.306-16.736-37.306-37.306V52.821c0-20.57,16.735-37.306,37.306-37.306h360.628c20.57,0,37.305,16.736,37.305,37.306    v278.732c-5.765-4.371-12.653-7.337-20.154-8.357c-5.492-17.73-22.217-30.441-41.222-30.441c-12.262,0-23.706,5.127-31.805,14    c-10.129-5.165-21.343-7.868-32.809-7.868c-14.056,0-27.18,4.041-38.296,11.003H199.153v112.082h56.858    c0.76,11.049,5.297,21.076,12.342,28.782H74.88z M257.516,406.456h-42.848v-81.051h76.206    c-10.258,12.493-16.425,28.465-16.425,45.854c0,3.098,0.198,6.199,0.591,9.269C266.416,386.975,260.27,396.171,257.516,406.456z     M468.082,496.485c-3.498,0-6.344-2.845-6.344-6.344v-39.388h-26.23h-37.392v16.746c0,4.81-3.913,8.723-8.724,8.723    c-4.809,0-8.723-3.913-8.723-8.723v-16.746h-77.193c-17.688,0-32.078-14.39-32.078-32.077c0-11.387,6.133-22.022,16.004-27.755    l4.816-2.797l-1.11-5.458c-0.759-3.736-1.145-7.574-1.145-11.409c0-31.351,25.506-56.857,56.858-56.857    c10.886,0,21.478,3.101,30.628,8.967l6.534,4.188l4.185-6.535c5.114-7.984,13.813-12.751,23.267-12.751    c13.55,0,25.288,10.084,27.304,23.455l1.007,6.678l6.751-0.077l0.364-0.009c15.203,0.029,27.562,12.406,27.562,27.615v124.21    h0.001C474.425,493.639,471.58,496.485,468.082,496.485z" fill="#FFFFFF"/>
	</g>
</g>
<g>
</g>
<g>
</g>
<g>
</g>
<g>
</g>
<g>
</g>
<g>
</g>
<g>
</g>
<g>
</g>
<g>
</g>
<g>
</g>
<g>
</g>
<g>
</g>
<g>
</g>
<g>
</g>
<g>
</g>
</svg>
